<?xml version="1.0" encoding="UTF-8" standalone="no"?>
<!-- Generator: Gravit.io -->

<svg
   style="isolation:isolate"
   viewBox="0 0 450 450"
   width="450"
   height="450"
   version="1.1"
   id="svg24"
   xmlns="http://www.w3.org/2000/svg"
   xmlns:svg="http://www.w3.org/2000/svg">
  <defs
     id="defs5">
    <clipPath
       id="_clipPath_zNMc8mTeoN30gkUzd7glWakACWVBWb02">
      <rect
         width="450"
         height="450"
         id="rect2" />
    </clipPath>
  </defs>
  <g
     clip-path="url(#_clipPath_zNMc8mTeoN30gkUzd7glWakACWVBWb02)"
     id="g22"
     transform="matrix(1.171875,0,0,1.171875,-38.671875,-38.671875)">
    <g
       id="Group">
      <path
         d="m 300.587,315.19 c -12.094,0 -6.067,-28.179 -6.067,-32.24 1.027,-2.006 -9.051,-121.916 -9.051,-121.916 1.028,-4.062 3.024,-9.101 10.078,-9.101 h 2.006 c 16.145,0 30.235,-13.102 30.235,-29.207 0,-16.145 -13.102,-29.257 -30.235,-29.257 -16.095,0 -30.235,13.112 -30.235,29.257 0,3.024 0,6.017 1.028,9.051 0,0 6.017,15.117 -7.054,13.111 0,0 -113.884,39.285 -118.923,40.313 -14.14,25.196 -50.391,12.094 -61.497,4.011 -3.024,-4.011 -9.051,-7.044 -16.095,-7.044 -12.216,0.087 -22.103,9.956 -22.213,22.172 1.028,11.096 11.106,21.174 23.2,21.174 4.062,0 9.101,-1.028 12.094,-3.023 18.141,-9.071 51.409,-3.044 55.43,13.101 v 1.028 c 1.008,2.983 24.188,49.363 27.222,53.374 15.117,28.229 -22.213,39.336 -22.213,39.336 -10.078,0 -19.128,9.05 -19.128,20.156 0,12.084 10.078,22.162 22.172,22.162 12.073,0 22.152,-10.078 22.152,-22.172 3.033,-23.18 15.117,-38.297 37.329,-39.325 2.984,1.028 57.436,-2.983 61.447,-4.011 16.146,3.023 7.055,16.145 7.055,38.297 0,16.105 13.102,29.227 30.235,29.227 16.135,0 30.234,-13.122 30.234,-29.227 1.018,-16.125 -12.094,-29.247 -29.216,-29.247 z"
         fill="#2e7d32"
         id="path7" />
      <path
         d="m 367.123,167.06 c -9.101,0 -16.145,4.052 -19.179,12.074 -9.05,13.112 -28.219,16.145 -40.313,10.078 -2.005,-5.039 -129.001,-39.285 -129.001,-38.257 -16.105,9.051 -31.222,-19.178 -30.234,-32.29 v -0.978 c 1.017,-3.033 1.017,-6.067 1.017,-9.1 0,-16.095 -13.101,-29.207 -30.234,-29.207 -16.146,0 -30.235,13.102 -30.235,29.207 0,13.111 9.05,23.19 19.129,28.229 17.173,7.054 40.312,27.211 38.307,41.34 7.055,12.084 -9.05,74.559 -8.063,79.598 -9.06,9.101 -27.211,7.055 -34.256,4.062 -3.023,-4.062 -9.05,-6.067 -15.117,-6.067 -16.145,0 -30.234,13.101 -30.234,29.206 0,16.146 13.101,29.257 30.234,29.257 10.078,0 18.141,-4.061 24.168,-12.094 9.1,-13.101 24.218,-25.195 37.329,-25.195 2.006,2.993 164.235,-60.469 164.235,-61.487 1.028,-6.067 25.195,-12.094 46.38,-7.055 h 6.067 c 12.084,0 22.162,-10.078 22.162,-22.152 0,-12.134 -10.078,-19.179 -22.172,-19.179 z"
         fill="#4caf50"
         id="path9" />
      <path
         d="m 315.704,225.514 c 0,50.079 -40.625,90.704 -90.704,90.704 -50.079,0 -90.704,-40.625 -90.704,-90.704 0,-50.079 40.625,-90.704 90.704,-90.704 50.079,0 90.704,40.625 90.704,90.704 z"
         fill="#4caf50"
         id="path11" />
      <path
         d="m 248.18,311.179 c 3.044,-6.067 -8.063,-8.063 -17.113,-8.063 -9.101,0 -18.151,5.039 -16.145,11.086 24.167,36.262 6.067,41.301 -5.039,48.396 -9.051,4.011 -15.118,15.117 -15.118,25.195 0,16.095 13.102,29.207 30.235,29.207 17.133,0 30.235,-13.102 30.235,-29.207 1.028,-28.229 -17.133,-67.564 -7.055,-76.614 z m 126.965,-56.458 c -6.017,0 -12.084,1.028 -16.095,4.061 -18.151,7.045 -34.296,-6.067 -46.38,-14.14 -6.016,-4.011 -13.101,6.068 -15.117,9.101 -2.006,3.024 -5.039,17.123 7.055,17.123 20.156,-7.055 45.352,28.219 45.352,28.219 4.051,10.078 15.117,16.105 27.241,16.105 16.095,0 30.235,-13.061 30.235,-29.207 -3.034,-18.141 -16.146,-31.262 -32.291,-31.262 z M 198.776,79.38 c 19.179,39.285 18.151,54.402 7.096,58.454 -9.101,7.054 6.016,16.105 17.122,14.109 11.056,-2.016 21.134,-7.055 14.09,-17.133 -17.123,-30.235 5.039,-50.391 5.039,-50.391 7.055,-4.011 12.094,-13.102 12.094,-22.172 C 254.217,46.122 241.145,33 223.982,33 c -17.133,0 -30.235,13.112 -30.235,29.257 0,4.011 1.018,9.05 3.024,13.102 0,2.993 0,2.993 2.016,4.021 z"
         fill="#8bc34a"
         id="path13" />
      <path
         d="m 208.855,225.514 c -16.095,0 -30.235,-13.102 -30.235,-29.207 0,-16.145 13.112,-29.257 30.235,-29.257 17.173,0 30.234,13.112 30.234,29.257 0,16.095 -13.061,29.207 -30.234,29.207 z"
         fill="#c5e1a5"
         id="path15" />
      <path
         d="m 193.737,269.838 c -9.05,0 -15.117,-6.017 -15.117,-15.117 0,-9.051 6.067,-15.118 15.117,-15.118 9.101,0 15.118,6.067 15.118,15.118 0,9.1 -6.017,15.117 -15.118,15.117 z"
         fill="#f1f8e9"
         id="path17" />
      <path
         d="m 247.172,285.983 c -12.094,0 -22.172,-10.078 -22.172,-22.172 0,-12.074 10.078,-22.152 22.172,-22.152 12.074,0 22.152,10.078 22.152,22.162 0,12.084 -10.078,22.162 -22.162,22.162 z"
         fill="#dcedc8"
         id="path19" />
    </g>
  </g>
</svg>
